<svg width="28" height="25" viewBox="0 0 28 25" fill="none" xmlns="http://www.w3.org/2000/svg">
<path d="M15.0368 12.5601L26.9471 1.46179C27.2156 1.21163 27.2156 0.806031 26.9471 0.555867C26.6786 0.305703 26.2434 0.305703 25.9748 0.555867L14.0645 11.6541L2.15418 0.555787C1.88571 0.305623 1.45044 0.305623 1.18197 0.555787C0.913416 0.805951 0.913416 1.21155 1.18197 1.46171L13.0922 12.5601L1.18188 23.6583C0.91333 23.9086 0.91333 24.3141 1.18188 24.5643C1.31612 24.6894 1.49203 24.752 1.66803 24.752C1.84403 24.752 2.01995 24.6894 2.15418 24.5643L14.0645 13.4661L25.9748 24.5643C26.1092 24.6894 26.285 24.752 26.461 24.752C26.637 24.752 26.8129 24.6894 26.9471 24.5643C27.2156 24.3141 27.2156 23.9086 26.9471 23.6583L15.0368 12.5601Z" fill="white"/>
</svg>
